<?xml version="1.0" encoding="UTF-8" standalone="no"?>
<!DOCTYPE svg PUBLIC "-//W3C//DTD SVG 1.1//EN"
 "http://www.w3.org/Graphics/SVG/1.1/DTD/svg11.dtd">
<!-- Generated by graphviz version 2.47.0 (20210316.0004)
 -->
<!-- Title: dependencies Pages: 1 -->
<svg width="504pt" height="284pt"
 viewBox="0.00 0.00 504.00 284.00" xmlns="http://www.w3.org/2000/svg" xmlns:xlink="http://www.w3.org/1999/xlink">
<g id="graph0" class="graph" transform="scale(1 1) rotate(0) translate(4 280)">
<title>dependencies</title>
<polygon fill="white" stroke="transparent" points="-4,4 -4,-280 500,-280 500,4 -4,4"/>
<text text-anchor="start" x="227.01" y="-42.4" font-family="Times-12" font-weight="bold" font-size="14.00">Legend</text>
<polygon fill="#ffffb3" stroke="transparent" points="14,-10 14,-30 34,-30 34,-10 14,-10"/>
<text text-anchor="start" x="37.63" y="-15.4" font-family="Times-12" font-size="14.00"> &#160;Declarations</text>
<polygon fill="#8dd3c7" stroke="transparent" points="127,-10 127,-30 147,-30 147,-10 127,-10"/>
<text text-anchor="start" x="150.73" y="-15.4" font-family="Times-12" font-size="14.00"> &#160;Module</text>
<polygon fill="#80b1d3" stroke="transparent" points="213,-10 213,-30 233,-30 233,-10 213,-10"/>
<text text-anchor="start" x="236.78" y="-15.4" font-family="Times-12" font-size="14.00"> &#160;Bootstrap</text>
<polygon fill="#fdb462" stroke="transparent" points="310,-10 310,-30 330,-30 330,-10 310,-10"/>
<text text-anchor="start" x="333.67" y="-15.4" font-family="Times-12" font-size="14.00"> &#160;Providers</text>
<polygon fill="#fb8072" stroke="transparent" points="406,-10 406,-30 426,-30 426,-10 406,-10"/>
<text text-anchor="start" x="429.73" y="-15.4" font-family="Times-12" font-size="14.00"> &#160;Exports</text>
<g id="clust1" class="cluster">
<title>cluster_DisciplineModule</title>
<polygon fill="none" stroke="black" stroke-dasharray="1,5" points="76.5,-70 76.5,-268 419.5,-268 419.5,-70 76.5,-70"/>
</g>
<g id="clust4" class="cluster">
<title>cluster_DisciplineModule_exports</title>
<polygon fill="none" stroke="black" points="173.5,-208 173.5,-260 309.5,-260 309.5,-208 173.5,-208"/>
</g>
<g id="clust6" class="cluster">
<title>cluster_DisciplineModule_providers</title>
<polygon fill="none" stroke="black" points="84.5,-78 84.5,-130 411.5,-130 411.5,-78 84.5,-78"/>
</g>
<!-- DisciplineService  -->
<g id="node1" class="node">
<title>DisciplineService </title>
<polygon fill="#fb8072" stroke="black" points="301.02,-252 181.98,-252 181.98,-216 301.02,-216 301.02,-252"/>
<text text-anchor="middle" x="241.5" y="-229.8" font-family="Times,serif" font-size="14.00">DisciplineService </text>
</g>
<!-- DisciplineModule -->
<g id="node2" class="node">
<title>DisciplineModule</title>
<polygon fill="#8dd3c7" stroke="black" points="300.09,-187 297.09,-191 276.09,-191 273.09,-187 182.91,-187 182.91,-151 300.09,-151 300.09,-187"/>
<text text-anchor="middle" x="241.5" y="-164.8" font-family="Times,serif" font-size="14.00">DisciplineModule</text>
</g>
<!-- DisciplineModule&#45;&gt;DisciplineService  -->
<g id="edge1" class="edge">
<title>DisciplineModule&#45;&gt;DisciplineService </title>
<path fill="none" stroke="black" stroke-dasharray="5,2" d="M241.5,-187.11C241.5,-187.11 241.5,-205.99 241.5,-205.99"/>
<polygon fill="black" stroke="black" points="238,-205.99 241.5,-215.99 245,-205.99 238,-205.99"/>
</g>
<!-- DisciplineService -->
<g id="node3" class="node">
<title>DisciplineService</title>
<ellipse fill="#fdb462" stroke="black" cx="323.5" cy="-104" rx="79.87" ry="18"/>
<text text-anchor="middle" x="323.5" y="-99.8" font-family="Times,serif" font-size="14.00">DisciplineService</text>
</g>
<!-- DisciplineService&#45;&gt;DisciplineModule -->
<g id="edge2" class="edge">
<title>DisciplineService&#45;&gt;DisciplineModule</title>
<path fill="none" stroke="black" d="M271.93,-117.78C271.93,-117.78 271.93,-140.55 271.93,-140.55"/>
<polygon fill="black" stroke="black" points="268.43,-140.55 271.93,-150.55 275.43,-140.55 268.43,-140.55"/>
</g>
<!-- PrismaService -->
<g id="node4" class="node">
<title>PrismaService</title>
<ellipse fill="#fdb462" stroke="black" cx="159.5" cy="-104" rx="66.63" ry="18"/>
<text text-anchor="middle" x="159.5" y="-99.8" font-family="Times,serif" font-size="14.00">PrismaService</text>
</g>
<!-- PrismaService&#45;&gt;DisciplineModule -->
<g id="edge3" class="edge">
<title>PrismaService&#45;&gt;DisciplineModule</title>
<path fill="none" stroke="black" d="M204.63,-117.47C204.63,-117.47 204.63,-140.86 204.63,-140.86"/>
<polygon fill="black" stroke="black" points="201.13,-140.86 204.63,-150.86 208.13,-140.86 201.13,-140.86"/>
</g>
</g>
</svg>
