<?xml version="1.0" encoding="UTF-8" standalone="no"?>
<!DOCTYPE svg PUBLIC "-//W3C//DTD SVG 1.1//EN"
 "http://www.w3.org/Graphics/SVG/1.1/DTD/svg11.dtd">
<!-- Generated by graphviz version 2.47.0 (20210316.0004)
 -->
<!-- Title: dependencies Pages: 1 -->
<svg width="1539pt" height="352pt"
 viewBox="0.00 0.00 1539.00 352.00" xmlns="http://www.w3.org/2000/svg" xmlns:xlink="http://www.w3.org/1999/xlink">
<g id="graph0" class="graph" transform="scale(1 1) rotate(0) translate(4 348)">
<title>dependencies</title>
<polygon fill="white" stroke="transparent" points="-4,4 -4,-348 1535,-348 1535,4 -4,4"/>
<text text-anchor="start" x="744.51" y="-42.4" font-family="Times-12" font-weight="bold" font-size="14.00">Legend</text>
<polygon fill="#ffffb3" stroke="transparent" points="531.5,-10 531.5,-30 551.5,-30 551.5,-10 531.5,-10"/>
<text text-anchor="start" x="555.13" y="-15.4" font-family="Times-12" font-size="14.00"> &#160;Declarations</text>
<polygon fill="#8dd3c7" stroke="transparent" points="644.5,-10 644.5,-30 664.5,-30 664.5,-10 644.5,-10"/>
<text text-anchor="start" x="668.23" y="-15.4" font-family="Times-12" font-size="14.00"> &#160;Module</text>
<polygon fill="#80b1d3" stroke="transparent" points="730.5,-10 730.5,-30 750.5,-30 750.5,-10 730.5,-10"/>
<text text-anchor="start" x="754.28" y="-15.4" font-family="Times-12" font-size="14.00"> &#160;Bootstrap</text>
<polygon fill="#fdb462" stroke="transparent" points="827.5,-10 827.5,-30 847.5,-30 847.5,-10 827.5,-10"/>
<text text-anchor="start" x="851.17" y="-15.4" font-family="Times-12" font-size="14.00"> &#160;Providers</text>
<polygon fill="#fb8072" stroke="transparent" points="923.5,-10 923.5,-30 943.5,-30 943.5,-10 923.5,-10"/>
<text text-anchor="start" x="947.23" y="-15.4" font-family="Times-12" font-size="14.00"> &#160;Exports</text>
<g id="clust1" class="cluster">
<title>cluster_AppModule</title>
<polygon fill="none" stroke="black" stroke-dasharray="1,5" points="86,-146 86,-336 599,-336 599,-146 86,-146"/>
</g>
<g id="clust3" class="cluster">
<title>cluster_AppModule_imports</title>
<polygon fill="none" stroke="black" points="232,-154 232,-271 591,-271 591,-154 232,-154"/>
</g>
<g id="clust6" class="cluster">
<title>cluster_AppModule_providers</title>
<polygon fill="none" stroke="black" points="94,-219 94,-271 224,-271 224,-219 94,-219"/>
</g>
<g id="clust7" class="cluster">
<title>cluster_AuthModule</title>
<polygon fill="none" stroke="black" stroke-dasharray="1,5" points="8,-70 8,-138 424,-138 424,-70 8,-70"/>
</g>
<g id="clust10" class="cluster">
<title>cluster_AuthModule_exports</title>
<polygon fill="none" stroke="black" points="16,-78 16,-130 122,-130 122,-78 16,-78"/>
</g>
<g id="clust12" class="cluster">
<title>cluster_AuthModule_providers</title>
<polygon fill="none" stroke="black" points="130,-78 130,-130 416,-130 416,-78 130,-78"/>
</g>
<g id="clust13" class="cluster">
<title>cluster_ContentModule</title>
<polygon fill="none" stroke="black" stroke-dasharray="1,5" points="607,-211 607,-279 911,-279 911,-211 607,-211"/>
</g>
<g id="clust16" class="cluster">
<title>cluster_ContentModule_exports</title>
<polygon fill="none" stroke="black" points="781,-219 781,-271 903,-271 903,-219 781,-219"/>
</g>
<g id="clust18" class="cluster">
<title>cluster_ContentModule_providers</title>
<polygon fill="none" stroke="black" points="615,-219 615,-271 773,-271 773,-219 615,-219"/>
</g>
<g id="clust19" class="cluster">
<title>cluster_DisciplineModule</title>
<polygon fill="none" stroke="black" stroke-dasharray="1,5" points="919,-211 919,-279 1255,-279 1255,-211 919,-211"/>
</g>
<g id="clust22" class="cluster">
<title>cluster_DisciplineModule_exports</title>
<polygon fill="none" stroke="black" points="1111,-219 1111,-271 1247,-271 1247,-219 1111,-219"/>
</g>
<g id="clust24" class="cluster">
<title>cluster_DisciplineModule_providers</title>
<polygon fill="none" stroke="black" points="927,-219 927,-271 1103,-271 1103,-219 927,-219"/>
</g>
<g id="clust25" class="cluster">
<title>cluster_UserModule</title>
<polygon fill="none" stroke="black" stroke-dasharray="1,5" points="1263,-211 1263,-279 1523,-279 1523,-211 1263,-211"/>
</g>
<g id="clust28" class="cluster">
<title>cluster_UserModule_exports</title>
<polygon fill="none" stroke="black" points="1411,-219 1411,-271 1515,-271 1515,-219 1411,-219"/>
</g>
<g id="clust30" class="cluster">
<title>cluster_UserModule_providers</title>
<polygon fill="none" stroke="black" points="1271,-219 1271,-271 1403,-271 1403,-219 1271,-219"/>
</g>
<!-- AuthModule -->
<g id="node1" class="node">
<title>AuthModule</title>
<polygon fill="#8dd3c7" stroke="black" points="327.55,-263 324.55,-267 303.55,-267 300.55,-263 240.45,-263 240.45,-227 327.55,-227 327.55,-263"/>
<text text-anchor="middle" x="284" y="-240.8" font-family="Times,serif" font-size="14.00">AuthModule</text>
</g>
<!-- AppModule -->
<g id="node5" class="node">
<title>AppModule</title>
<polygon fill="#8dd3c7" stroke="black" points="388.66,-328 385.66,-332 364.66,-332 361.66,-328 305.34,-328 305.34,-292 388.66,-292 388.66,-328"/>
<text text-anchor="middle" x="347" y="-305.8" font-family="Times,serif" font-size="14.00">AppModule</text>
</g>
<!-- AuthModule&#45;&gt;AppModule -->
<g id="edge1" class="edge">
<title>AuthModule&#45;&gt;AppModule</title>
<path fill="none" stroke="black" d="M316.47,-263.11C316.47,-263.11 316.47,-281.99 316.47,-281.99"/>
<polygon fill="black" stroke="black" points="312.97,-281.99 316.47,-291.99 319.97,-281.99 312.97,-281.99"/>
</g>
<!-- AuthService  -->
<g id="node7" class="node">
<title>AuthService </title>
<polygon fill="#fb8072" stroke="black" points="113.98,-122 24.02,-122 24.02,-86 113.98,-86 113.98,-122"/>
<text text-anchor="middle" x="69" y="-99.8" font-family="Times,serif" font-size="14.00">AuthService </text>
</g>
<!-- AuthModule&#45;&gt;AuthService  -->
<g id="edge7" class="edge">
<title>AuthModule&#45;&gt;AuthService </title>
<path fill="none" stroke="black" stroke-dasharray="5,2" d="M284,-226.88C284,-224.03 284,-222 284,-222 284,-222 108.06,-222 108.06,-222 108.06,-222 108.06,-132.18 108.06,-132.18"/>
<polygon fill="black" stroke="black" points="111.56,-132.18 108.06,-122.18 104.56,-132.18 111.56,-132.18"/>
</g>
<!-- ContentModule -->
<g id="node2" class="node">
<title>ContentModule</title>
<polygon fill="#8dd3c7" stroke="black" points="343.88,-198 340.88,-202 319.88,-202 316.88,-198 240.12,-198 240.12,-162 343.88,-162 343.88,-198"/>
<text text-anchor="middle" x="292" y="-175.8" font-family="Times,serif" font-size="14.00">ContentModule</text>
</g>
<!-- ContentModule&#45;&gt;AppModule -->
<g id="edge2" class="edge">
<title>ContentModule&#45;&gt;AppModule</title>
<path fill="none" stroke="black" d="M335.86,-198.08C335.86,-198.08 335.86,-281.66 335.86,-281.66"/>
<polygon fill="black" stroke="black" points="332.36,-281.66 335.86,-291.66 339.36,-281.66 332.36,-281.66"/>
</g>
<!-- ContentService  -->
<g id="node10" class="node">
<title>ContentService </title>
<polygon fill="#fb8072" stroke="black" points="894.81,-263 789.19,-263 789.19,-227 894.81,-227 894.81,-263"/>
<text text-anchor="middle" x="842" y="-240.8" font-family="Times,serif" font-size="14.00">ContentService </text>
</g>
<!-- ContentModule&#45;&gt;ContentService  -->
<g id="edge10" class="edge">
<title>ContentModule&#45;&gt;ContentService </title>
<path fill="none" stroke="black" stroke-dasharray="5,2" d="M331.82,-198.42C331.82,-207.28 331.82,-216 331.82,-216 331.82,-216 842,-216 842,-216 842,-216 842,-217.08 842,-217.08"/>
<polygon fill="black" stroke="black" points="838.5,-216.8 842,-226.8 845.5,-216.8 838.5,-216.8"/>
</g>
<!-- DisciplineModule -->
<g id="node3" class="node">
<title>DisciplineModule</title>
<polygon fill="#8dd3c7" stroke="black" points="478.59,-198 475.59,-202 454.59,-202 451.59,-198 361.41,-198 361.41,-162 478.59,-162 478.59,-198"/>
<text text-anchor="middle" x="420" y="-175.8" font-family="Times,serif" font-size="14.00">DisciplineModule</text>
</g>
<!-- DisciplineModule&#45;&gt;AppModule -->
<g id="edge3" class="edge">
<title>DisciplineModule&#45;&gt;AppModule</title>
<path fill="none" stroke="black" d="M375.14,-198.08C375.14,-198.08 375.14,-281.66 375.14,-281.66"/>
<polygon fill="black" stroke="black" points="371.64,-281.66 375.14,-291.66 378.64,-281.66 371.64,-281.66"/>
</g>
<!-- DisciplineService  -->
<g id="node12" class="node">
<title>DisciplineService </title>
<polygon fill="#fb8072" stroke="black" points="1238.52,-263 1119.48,-263 1119.48,-227 1238.52,-227 1238.52,-263"/>
<text text-anchor="middle" x="1179" y="-240.8" font-family="Times,serif" font-size="14.00">DisciplineService </text>
</g>
<!-- DisciplineModule&#45;&gt;DisciplineService  -->
<g id="edge13" class="edge">
<title>DisciplineModule&#45;&gt;DisciplineService </title>
<path fill="none" stroke="black" stroke-dasharray="5,2" d="M418.73,-198.19C418.73,-201.54 418.73,-204 418.73,-204 418.73,-204 1179,-204 1179,-204 1179,-204 1179,-216.9 1179,-216.9"/>
<polygon fill="black" stroke="black" points="1175.5,-216.9 1179,-226.9 1182.5,-216.9 1175.5,-216.9"/>
</g>
<!-- UserModule -->
<g id="node4" class="node">
<title>UserModule</title>
<polygon fill="#8dd3c7" stroke="black" points="582.98,-198 579.98,-202 558.98,-202 555.98,-198 497.02,-198 497.02,-162 582.98,-162 582.98,-198"/>
<text text-anchor="middle" x="540" y="-175.8" font-family="Times,serif" font-size="14.00">UserModule</text>
</g>
<!-- UserModule&#45;&gt;AuthModule -->
<g id="edge6" class="edge">
<title>UserModule&#45;&gt;AuthModule</title>
<path fill="none" stroke="black" d="M525.67,-198.11C525.67,-217.34 525.67,-245 525.67,-245 525.67,-245 337.76,-245 337.76,-245"/>
<polygon fill="black" stroke="black" points="337.76,-241.5 327.76,-245 337.76,-248.5 337.76,-241.5"/>
</g>
<!-- UserModule&#45;&gt;AppModule -->
<g id="edge4" class="edge">
<title>UserModule&#45;&gt;AppModule</title>
<path fill="none" stroke="black" d="M554.33,-198.08C554.33,-233.8 554.33,-310 554.33,-310 554.33,-310 398.96,-310 398.96,-310"/>
<polygon fill="black" stroke="black" points="398.96,-306.5 388.96,-310 398.96,-313.5 398.96,-306.5"/>
</g>
<!-- UserService  -->
<g id="node14" class="node">
<title>UserService </title>
<polygon fill="#fb8072" stroke="black" points="1506.9,-263 1419.1,-263 1419.1,-227 1506.9,-227 1506.9,-263"/>
<text text-anchor="middle" x="1463" y="-240.8" font-family="Times,serif" font-size="14.00">UserService </text>
</g>
<!-- UserModule&#45;&gt;UserService  -->
<g id="edge16" class="edge">
<title>UserModule&#45;&gt;UserService </title>
<path fill="none" stroke="black" stroke-dasharray="5,2" d="M583.28,-174C765.76,-174 1463,-174 1463,-174 1463,-174 1463,-216.72 1463,-216.72"/>
<polygon fill="black" stroke="black" points="1459.5,-216.72 1463,-226.72 1466.5,-216.72 1459.5,-216.72"/>
</g>
<!-- AppService -->
<g id="node6" class="node">
<title>AppService</title>
<ellipse fill="#fdb462" stroke="black" cx="159" cy="-245" rx="56.74" ry="18"/>
<text text-anchor="middle" x="159" y="-240.8" font-family="Times,serif" font-size="14.00">AppService</text>
</g>
<!-- AppService&#45;&gt;AppModule -->
<g id="edge5" class="edge">
<title>AppService&#45;&gt;AppModule</title>
<path fill="none" stroke="black" d="M159,-263.11C159,-282.34 159,-310 159,-310 159,-310 295.28,-310 295.28,-310"/>
<polygon fill="black" stroke="black" points="295.28,-313.5 305.28,-310 295.28,-306.5 295.28,-313.5"/>
</g>
<!-- AuthService -->
<g id="node8" class="node">
<title>AuthService</title>
<ellipse fill="#fdb462" stroke="black" cx="197" cy="-104" rx="59.11" ry="18"/>
<text text-anchor="middle" x="197" y="-99.8" font-family="Times,serif" font-size="14.00">AuthService</text>
</g>
<!-- AuthService&#45;&gt;AuthModule -->
<g id="edge8" class="edge">
<title>AuthService&#45;&gt;AuthModule</title>
<path fill="none" stroke="black" d="M227.84,-119.63C227.84,-156.34 227.84,-245 227.84,-245 227.84,-245 230.3,-245 230.3,-245"/>
<polygon fill="black" stroke="black" points="230.3,-248.5 240.3,-245 230.3,-241.5 230.3,-248.5"/>
</g>
<!-- PrismaService -->
<g id="node9" class="node">
<title>PrismaService</title>
<ellipse fill="#fdb462" stroke="black" cx="341" cy="-104" rx="66.63" ry="18"/>
<text text-anchor="middle" x="341" y="-99.8" font-family="Times,serif" font-size="14.00">PrismaService</text>
</g>
<!-- PrismaService&#45;&gt;AuthModule -->
<g id="edge9" class="edge">
<title>PrismaService&#45;&gt;AuthModule</title>
<path fill="none" stroke="black" d="M352.7,-121.8C352.7,-157.83 352.7,-236 352.7,-236 352.7,-236 337.9,-236 337.9,-236"/>
<polygon fill="black" stroke="black" points="337.9,-232.5 327.9,-236 337.9,-239.5 337.9,-232.5"/>
</g>
<!-- PrismaService&#45;&gt;ContentModule -->
<g id="edge12" class="edge">
<title>PrismaService&#45;&gt;ContentModule</title>
<path fill="none" stroke="black" d="M309.06,-120.12C309.06,-120.12 309.06,-151.77 309.06,-151.77"/>
<polygon fill="black" stroke="black" points="305.56,-151.77 309.06,-161.77 312.56,-151.77 305.56,-151.77"/>
</g>
<!-- PrismaService&#45;&gt;DisciplineModule -->
<g id="edge15" class="edge">
<title>PrismaService&#45;&gt;DisciplineModule</title>
<path fill="none" stroke="black" d="M384.63,-117.94C384.63,-117.94 384.63,-151.84 384.63,-151.84"/>
<polygon fill="black" stroke="black" points="381.13,-151.84 384.63,-161.84 388.13,-151.84 381.13,-151.84"/>
</g>
<!-- PrismaService&#45;&gt;UserModule -->
<g id="edge17" class="edge">
<title>PrismaService&#45;&gt;UserModule</title>
<path fill="none" stroke="black" d="M407.82,-104C465.63,-104 540,-104 540,-104 540,-104 540,-151.99 540,-151.99"/>
<polygon fill="black" stroke="black" points="536.5,-151.99 540,-161.99 543.5,-151.99 536.5,-151.99"/>
</g>
<!-- ContentService -->
<g id="node11" class="node">
<title>ContentService</title>
<ellipse fill="#fdb462" stroke="black" cx="694" cy="-245" rx="70.64" ry="18"/>
<text text-anchor="middle" x="694" y="-240.8" font-family="Times,serif" font-size="14.00">ContentService</text>
</g>
<!-- ContentService&#45;&gt;ContentModule -->
<g id="edge11" class="edge">
<title>ContentService&#45;&gt;ContentModule</title>
<path fill="none" stroke="black" d="M632.72,-254C531.38,-254 339.9,-254 339.9,-254 339.9,-254 339.9,-208.29 339.9,-208.29"/>
<polygon fill="black" stroke="black" points="343.4,-208.29 339.9,-198.29 336.4,-208.29 343.4,-208.29"/>
</g>
<!-- DisciplineService -->
<g id="node13" class="node">
<title>DisciplineService</title>
<ellipse fill="#fdb462" stroke="black" cx="1015" cy="-245" rx="79.87" ry="18"/>
<text text-anchor="middle" x="1015" y="-240.8" font-family="Times,serif" font-size="14.00">DisciplineService</text>
</g>
<!-- DisciplineService&#45;&gt;DisciplineModule -->
<g id="edge14" class="edge">
<title>DisciplineService&#45;&gt;DisciplineModule</title>
<path fill="none" stroke="black" d="M1015,-226.68C1015,-218.21 1015,-210 1015,-210 1015,-210 448.64,-210 448.64,-210 448.64,-210 448.64,-208.14 448.64,-208.14"/>
<polygon fill="black" stroke="black" points="452.14,-208.14 448.64,-198.14 445.14,-208.14 452.14,-208.14"/>
</g>
<!-- UserService -->
<g id="node15" class="node">
<title>UserService</title>
<ellipse fill="#fdb462" stroke="black" cx="1337" cy="-245" rx="58.44" ry="18"/>
<text text-anchor="middle" x="1337" y="-240.8" font-family="Times,serif" font-size="14.00">UserService</text>
</g>
<!-- UserService&#45;&gt;UserModule -->
<g id="edge18" class="edge">
<title>UserService&#45;&gt;UserModule</title>
<path fill="none" stroke="black" d="M1337,-226.98C1337,-209.63 1337,-186 1337,-186 1337,-186 593.13,-186 593.13,-186"/>
<polygon fill="black" stroke="black" points="593.13,-182.5 583.13,-186 593.13,-189.5 593.13,-182.5"/>
</g>
</g>
</svg>
